<svg width="44" height="43" viewBox="0 0 44 43" fill="none" xmlns="http://www.w3.org/2000/svg">
  <path
    d="M13.8747 40.6382C-7.32531 25.0381 2.20802 11.1382 10.3747 5.13818C16.7105 12.178 23.6038 18.4743 29.4058 22.5228C30.4713 22.3711 31.6258 22.2423 32.8747 22.1382C37.191 21.8792 40.7919 17.4619 40.0645 12.6382C30.2312 10.8049 8.87469 -0.361811 23.8747 1.13818C34.9617 3.30739 39.3876 8.14883 40.0645 12.6382C47.0696 29.8105 40.0872 29.9761 29.4058 22.5228C26.6658 22.9128 24.5147 23.4535 22.8624 24.11C22.8665 24.1194 22.8706 24.1288 22.8747 24.1382C26.8747 33.3382 28.0414 38.9715 27.8747 41.1382C21.2258 36.3889 12.8092 28.1045 22.8624 24.11C17.8542 12.6472 5.38164 18.1566 13.8747 40.6382Z"
    fill="#fff" />
  <path
    d="M10.3747 5.13818C2.20802 11.1382 -7.32531 25.0381 13.8747 40.6382C5.37469 18.1382 17.8747 12.6382 22.8747 24.1382C26.8747 33.3382 28.0414 38.9715 27.8747 41.1382C19.708 35.3048 8.87469 24.1382 32.8747 22.1382C41.208 21.6382 46.8747 5.63818 23.8747 1.13818C8.87469 -0.361811 30.2312 10.8049 40.0645 12.6382C50.8747 39.1382 28.3747 25.1382 10.3747 5.13818Z"
    stroke="#fff" />
</svg>