i
<?xml version="1.0" encoding="UTF-8" standalone="no"?>
<!DOCTYPE svg PUBLIC "-//W3C//DTD SVG 1.1//EN" "http://www.w3.org/Graphics/SVG/1.1/DTD/svg11.dtd">
<svg xmlns="http://www.w3.org/2000/svg" version="1.1" viewBox="0.00 0.00 1000.00 1000.00">
  <g stroke-width="2.00" fill="none" stroke-linecap="butt">
    <path stroke="purple" vector-effect="non-scaling-stroke" d="
  M 928.00 508.00
  A 428.00 428.00 0.0 0 0 500.00 80.00
  A 428.00 428.00 0.0 0 0 72.00 508.00
  A 428.00 428.00 0.0 0 0 500.00 936.00
  A 428.00 428.00 0.0 0 0 928.00 508.00" />
    <!-- <path stroke="#fff" vector-effect="non-scaling-stroke" d="
  M 281.01 508.56
  C 267.27 484.70 253.27 460.24 236.29 438.46
  C 223.92 422.58 205.22 406.94 183.48 415.43
  C 163.28 423.32 146.65 444.42 134.69 461.90
  Q 111.50 495.77 93.03 532.41
  Q 92.80 532.85 92.83 533.35
  Q 95.04 569.17 103.24 604.11
  Q 105.36 613.14 109.18 623.06
  C 138.32 698.73 198.90 782.90 290.58 775.45
  C 334.62 771.87 378.18 746.76 411.43 718.67
  Q 425.73 706.58 435.04 698.86
  C 450.14 686.35 464.57 673.18 479.20 660.20
  Q 481.27 658.37 482.18 654.99
  Q 482.30 654.52 481.97 654.15
  C 471.17 642.06 460.66 628.05 453.82 613.12
  C 445.09 594.06 449.42 576.33 473.75 575.76
  C 492.56 575.31 512.00 580.65 529.58 586.92
  Q 530.09 587.10 529.75 587.53
  Q 507.25 616.45 490.04 648.80
  Q 488.76 651.20 487.63 653.80
  Q 487.42 654.27 487.78 654.64
  C 534.16 703.20 590.86 742.71 654.17 765.85
  C 710.84 786.57 775.19 791.63 825.84 752.83
  Q 827.14 751.84 828.91 749.41
  C 911.13 636.60 930.50 491.67 880.86 361.54
  Q 880.01 359.31 879.97 361.69
  C 879.09 406.07 860.97 445.98 824.90 472.20
  C 799.37 490.75 766.24 502.77 734.07 500.78
  Q 724.37 500.18 719.24 497.77
  Q 707.68 492.33 686.52 478.98
  C 638.69 448.81 590.68 417.56 539.49 393.32
  Q 539.03 393.10 538.56 393.32
  C 517.96 402.90 495.23 412.88 473.01 419.76
  C 459.56 423.93 425.80 432.64 425.77 407.47
  C 425.75 397.43 430.23 382.84 437.73 375.57
  C 460.15 353.84 514.57 377.28 538.15 388.38
  A 1.98 1.97 -45.2 0 0 539.85 388.37
  C 581.02 368.57 621.97 348.05 663.49 328.76
  Q 663.96 328.54 663.67 328.11
  C 623.51 268.10 557.20 224.60 483.75 222.01
  C 409.50 219.39 344.36 260.97 312.42 327.45
  C 286.74 380.90 285.13 438.10 299.72 494.90
  Q 299.85 495.41 299.42 495.73
  L 281.76 508.72
  A 0.52 0.51 56.7 0 1 281.01 508.56" /> -->
  </g>
  <!-- background square <path fill="#000000" d="
  M 0.00 0.00
  L 1000.00 0.00
  L 1000.00 1000.00
  L 0.00 1000.00
  L 0.00 0.00
  Z
  M 928.00 508.00
  A 428.00 428.00 0.0 0 0 500.00 80.00
  A 428.00 428.00 0.0 0 0 72.00 508.00
  A 428.00 428.00 0.0 0 0 500.00 936.00
  A 428.00 428.00 0.0 0 0 928.00 508.00
  Z" /> -->
  <!-- background circle <path fill="#000" d="
  M 928.00 508.00
  A 428.00 428.00 0.0 0 1 500.00 936.00
  A 428.00 428.00 0.0 0 1 72.00 508.00
  A 428.00 428.00 0.0 0 1 500.00 80.00
  A 428.00 428.00 0.0 0 1 928.00 508.00
  Z
  M 281.01 508.56
  C 267.27 484.70 253.27 460.24 236.29 438.46
  C 223.92 422.58 205.22 406.94 183.48 415.43
  C 163.28 423.32 146.65 444.42 134.69 461.90
  Q 111.50 495.77 93.03 532.41
  Q 92.80 532.85 92.83 533.35
  Q 95.04 569.17 103.24 604.11
  Q 105.36 613.14 109.18 623.06
  C 138.32 698.73 198.90 782.90 290.58 775.45
  C 334.62 771.87 378.18 746.76 411.43 718.67
  Q 425.73 706.58 435.04 698.86
  C 450.14 686.35 464.57 673.18 479.20 660.20
  Q 481.27 658.37 482.18 654.99
  Q 482.30 654.52 481.97 654.15
  C 471.17 642.06 460.66 628.05 453.82 613.12
  C 445.09 594.06 449.42 576.33 473.75 575.76
  C 492.56 575.31 512.00 580.65 529.58 586.92
  Q 530.09 587.10 529.75 587.53
  Q 507.25 616.45 490.04 648.80
  Q 488.76 651.20 487.63 653.80
  Q 487.42 654.27 487.78 654.64
  C 534.16 703.20 590.86 742.71 654.17 765.85
  C 710.84 786.57 775.19 791.63 825.84 752.83
  Q 827.14 751.84 828.91 749.41
  C 911.13 636.60 930.50 491.67 880.86 361.54
  Q 880.01 359.31 879.97 361.69
  C 879.09 406.07 860.97 445.98 824.90 472.20
  C 799.37 490.75 766.24 502.77 734.07 500.78
  Q 724.37 500.18 719.24 497.77
  Q 707.68 492.33 686.52 478.98
  C 638.69 448.81 590.68 417.56 539.49 393.32
  Q 539.03 393.10 538.56 393.32
  C 517.96 402.90 495.23 412.88 473.01 419.76
  C 459.56 423.93 425.80 432.64 425.77 407.47
  C 425.75 397.43 430.23 382.84 437.73 375.57
  C 460.15 353.84 514.57 377.28 538.15 388.38
  A 1.98 1.97 -45.2 0 0 539.85 388.37
  C 581.02 368.57 621.97 348.05 663.49 328.76
  Q 663.96 328.54 663.67 328.11
  C 623.51 268.10 557.20 224.60 483.75 222.01
  C 409.50 219.39 344.36 260.97 312.42 327.45
  C 286.74 380.90 285.13 438.10 299.72 494.90
  Q 299.85 495.41 299.42 495.73
  L 281.76 508.72
  A 0.52 0.51 56.7 0 1 281.01 508.56
  Z" /> -->
  <path fill="purple" d="
  M 281.01 508.56
  A 0.52 0.51 56.7 0 0 281.76 508.72
  L 299.42 495.73
  Q 299.85 495.41 299.72 494.90
  C 285.13 438.10 286.74 380.90 312.42 327.45
  C 344.36 260.97 409.50 219.39 483.75 222.01
  C 557.20 224.60 623.51 268.10 663.67 328.11
  Q 663.96 328.54 663.49 328.76
  C 621.97 348.05 581.02 368.57 539.85 388.37
  A 1.98 1.97 -45.2 0 1 538.15 388.38
  C 514.57 377.28 460.15 353.84 437.73 375.57
  C 430.23 382.84 425.75 397.43 425.77 407.47
  C 425.80 432.64 459.56 423.93 473.01 419.76
  C 495.23 412.88 517.96 402.90 538.56 393.32
  Q 539.03 393.10 539.49 393.32
  C 590.68 417.56 638.69 448.81 686.52 478.98
  Q 707.68 492.33 719.24 497.77
  Q 724.37 500.18 734.07 500.78
  C 766.24 502.77 799.37 490.75 824.90 472.20
  C 860.97 445.98 879.09 406.07 879.97 361.69
  Q 880.01 359.31 880.86 361.54
  C 930.50 491.67 911.13 636.60 828.91 749.41
  Q 827.14 751.84 825.84 752.83
  C 775.19 791.63 710.84 786.57 654.17 765.85
  C 590.86 742.71 534.16 703.20 487.78 654.64
  Q 487.42 654.27 487.63 653.80
  Q 488.76 651.20 490.04 648.80
  Q 507.25 616.45 529.75 587.53
  Q 530.09 587.10 529.58 586.92
  C 512.00 580.65 492.56 575.31 473.75 575.76
  C 449.42 576.33 445.09 594.06 453.82 613.12
  C 460.66 628.05 471.17 642.06 481.97 654.15
  Q 482.30 654.52 482.18 654.99
  Q 481.27 658.37 479.20 660.20
  C 464.57 673.18 450.14 686.35 435.04 698.86
  Q 425.73 706.58 411.43 718.67
  C 378.18 746.76 334.62 771.87 290.58 775.45
  C 198.90 782.90 138.32 698.73 109.18 623.06
  Q 105.36 613.14 103.24 604.11
  Q 95.04 569.17 92.83 533.35
  Q 92.80 532.85 93.03 532.41
  Q 111.50 495.77 134.69 461.90
  C 146.65 444.42 163.28 423.32 183.48 415.43
  C 205.22 406.94 223.92 422.58 236.29 438.46
  C 253.27 460.24 267.27 484.70 281.01 508.56
  Z" />
</svg>